# xmcd CD database file
#
# Track frame offsets:
#	183
#	12605
#	27813
#	40093
#	58108
#	69208
#	81600
#	91163
#	103958
#	113695
#	124180
#	134040
#
# Disc length: 1918 seconds
#
# Revision: 3
# Processed by: cddbd v1.4PL0 Copyright (c) Steve Scherf et al.
# Submitted via: CDex 1.40Beta9
#
DISCID=a6077c0c
DTITLE=John Lee Hooker - King Of The Boogie
DYEAR=1992
DGENRE=Blues
TTITLE0=No More Doggin'
TTITLE1=Tupelo
TTITLE2=Hobo Blues
TTITLE3=House Rent Boogie
TTITLE4=Bottle Up and Go
TTITLE5=Trouble Blues
TTITLE6=Onions
TTITLE7=Back Biter And Syndicaters
TTITLE8=I Wanna Walk
TTITLE9=Old Time Shimmy
TTITLE10=Run On
TTITLE11=Dimples
EXTD=YEAR: 1992 ID3G: 0
EXTT0=
EXTT1=
EXTT2=
EXTT3=
EXTT4=
EXTT5=
EXTT6=
EXTT7=
EXTT8=
EXTT9=
EXTT10=
EXTT11=
PLAYORDER=
